<svg version="1.1" id="Layer_1" xmlns="http://www.w3.org/2000/svg" xmlns:xlink="http://www.w3.org/1999/xlink" x="0px" y="0px"
	 width="24px" height="24px" viewBox="0 0 24 24">
<path d="M19.8,16.1c-0.3-1.4-1.4-2.3-2.8-2.3c-1.4,0-2.3,0.9-2.3,1.9c-0.1,0.8,0.2,1.3,0.6,1.6c0.7,0.5,1.3-0.4,1-0.6
	c-0.2-0.2-0.3-0.4-0.3-0.6c0-0.3,0.2-0.5,0.7-0.5c0.5,0,0.9,0.3,1,1.2c0.1,0.8-0.5,1.8-1.4,2c-1.3,0.3-2.5-0.4-3-1.5
	c-0.4-1.2-0.4-2.8,0.7-3.9c0.8-0.9,1.9-1.2,2.9-1.2l3.1,0.2c0.3,0,0.5-0.1,0.5-0.4L22,6.3c0.1-0.4-0.2-0.5-0.5-0.5h-5.8
	c-0.1,0-0.1,0-0.1,0c-0.1,0-0.2-0.2-0.2-0.3l0.6-2.9V2.6c0-0.3-0.2-0.5-0.5-0.5h-6C9.4,2.1,9,2.3,8.9,2.6L8.3,5.4
	C8.2,5.7,8,5.8,7.9,5.9H4c-0.4,0-0.6,0.2-0.7,0.5L2,11.9V12c0,0.3,0.2,0.5,0.4,0.5h4h0.1c0.2,0.1,0.3,0.3,0.3,0.4
	c-0.2,0.5-0.3,1.2-0.3,1.7c-0.1,1.7,0.4,3.6,1.7,5c2.3,2.5,6.6,2.6,9.1,1.3C19.4,19.9,20.3,17.9,19.8,16.1z"/>
</svg>
