<svg version="1.1" id="Layer_1" xmlns="http://www.w3.org/2000/svg" xmlns:xlink="http://www.w3.org/1999/xlink" x="0px" y="0px"
	 width="36px" height="36px" viewBox="0 0 36 36">
<style type="text/css">
	.st0{fill:#AF1F24;}
	.st1{clip-path:url(#SVGID_2_);fill:#E0E1E0;}
	.st2{clip-path:url(#SVGID_4_);fill:#E0E1E0;}
	.st3{clip-path:url(#SVGID_6_);fill:#E0E1E0;}
	.st4{clip-path:url(#SVGID_9_);fill:#E0E1E0;}
	.st5{fill:#EB2227;}
	.st6{clip-path:url(#SVGID_12_);fill:#FFFFFF;}
	.st7{clip-path:url(#SVGID_14_);fill:#FFFFFF;}
	.st8{clip-path:url(#SVGID_16_);fill:#FFFFFF;}
	.st9{clip-path:url(#SVGID_18_);fill:#FFFFFF;}
	.st10{clip-path:url(#SVGID_20_);fill:#FFFFFF;}
	.st11{clip-path:url(#SVGID_22_);fill:#FFFFFF;}
	.st12{clip-path:url(#SVGID_24_);fill:#FFFFFF;}
	.st13{clip-path:url(#SVGID_26_);fill:#FFFFFF;}
	.st14{clip-path:url(#SVGID_28_);fill:#FFFFFF;}
	.st15{fill:#FFFFFF;}
	.st16{fill:#D72027;}
</style>
<g id="XMLID_108_">
	<g>
		<path id="SVGID_7_" class="st0" d="M1.5,26.3c3.2,7.9,13.4,9.3,22.4,4.4S37.7,16.4,34.7,9.6c-0.4-0.9-1-2.2-1.8-3
			c-4.2-4.2-12.5-4.5-20-0.4C3.9,11.1-1.2,19.4,1.5,26.3"/>
	</g>
	<g>
		<defs>
			<path id="SVGID_1_" d="M1.5,26.3c3.2,7.9,13.4,9.3,22.4,4.4S37.7,16.4,34.7,9.6c-0.4-0.9-1-2.2-1.8-3c-4.2-4.2-12.5-4.5-20-0.4
				C3.9,11.1-1.2,19.4,1.5,26.3"/>
		</defs>
		<clipPath id="SVGID_2_">
			<use xlink:href="#SVGID_1_"  style="overflow:visible;"/>
		</clipPath>
		<path id="XMLID_50_" class="st1" d="M33.5,17.8l0.9,2c0.8-1.5,1.4-4.3,1.3-5.8l-0.9-1.9c0,0.3-0.3,2.4-0.4,2.7
			C34.2,15.6,33.8,17,33.5,17.8z"/>
	</g>
	<g>
		<defs>
			<path id="SVGID_3_" d="M1.5,26.3c3.2,7.9,13.4,9.3,22.4,4.4S37.7,16.4,34.7,9.6c-0.4-0.9-1-2.2-1.8-3c-4.2-4.2-12.5-4.5-20-0.4
				C3.9,11.1-1.2,19.4,1.5,26.3"/>
		</defs>
		<clipPath id="SVGID_4_">
			<use xlink:href="#SVGID_3_"  style="overflow:visible;"/>
		</clipPath>
		<path id="XMLID_49_" class="st2" d="M26.4,26.2l1,2.3c1.5-1.1,3.3-2.7,4.3-4.2l-0.9-2.1C30,23.2,27.5,25.5,26.4,26.2z"/>
	</g>
	<g>
		<defs>
			<path id="SVGID_5_" d="M1.5,26.3c3.2,7.9,13.4,9.3,22.4,4.4S37.7,16.4,34.7,9.6c-0.4-0.9-1-2.2-1.8-3c-4.2-4.2-12.5-4.5-20-0.4
				C3.9,11.1-1.2,19.4,1.5,26.3"/>
		</defs>
		<clipPath id="SVGID_6_">
			<use xlink:href="#SVGID_5_"  style="overflow:visible;"/>
		</clipPath>
		<path id="XMLID_48_" class="st3" d="M16.9,33.2l-0.6-2.1c2.4-0.6,3.8-1.2,6-2.2l0.6,2.3C21.4,32,18.3,33,16.9,33.2z"/>
	</g>
	<g>
		<defs>
			<path id="SVGID_8_" d="M1.5,26.3c3.2,7.9,13.4,9.3,22.4,4.4S37.7,16.4,34.7,9.6c-0.4-0.9-1-2.2-1.8-3c-4.2-4.2-12.5-4.5-20-0.4
				C3.9,11.1-1.2,19.4,1.5,26.3"/>
		</defs>
		<clipPath id="SVGID_9_">
			<use xlink:href="#SVGID_8_"  style="overflow:visible;"/>
		</clipPath>
		<path id="XMLID_47_" class="st4" d="M6.2,31.8l-1.3-1.9c1.8,0.8,3.8,1.5,6,1.7l0.4,1.8C8.4,33,7.6,32.5,6.2,31.8z"/>
	</g>
</g>
<g id="XMLID_88_">
	<g>
		<path id="SVGID_11_" class="st5" d="M1.4,25.9c2.9,6.4,12.5,7.6,21.5,2.8c9-4.9,14-14,11.1-20.4c-2.9-6.5-12.6-7.7-21.5-2.8
			C3.5,10.4-1.5,19.5,1.4,25.9"/>
	</g>
	<g>
		<defs>
			<path id="SVGID_10_" d="M1.4,25.9c2.9,6.4,12.5,7.6,21.5,2.8c9-4.9,14-14,11.1-20.4c-2.9-6.5-12.6-7.7-21.5-2.8
				C3.5,10.4-1.5,19.5,1.4,25.9"/>
		</defs>
		<clipPath id="SVGID_12_">
			<use xlink:href="#SVGID_10_"  style="overflow:visible;"/>
		</clipPath>
		<path id="XMLID_37_" class="st6" d="M7.3,14l-2.9-1.9c-1,1.2-1.8,2.5-2.5,4l3.6,0.8C5.9,15.8,6.6,15,7.3,14"/>
	</g>
	<g>
		<defs>
			<path id="SVGID_13_" d="M1.4,25.9c2.9,6.4,12.5,7.6,21.5,2.8c9-4.9,14-14,11.1-20.4c-2.9-6.5-12.6-7.7-21.5-2.8
				C3.5,10.4-1.5,19.5,1.4,25.9"/>
		</defs>
		<clipPath id="SVGID_14_">
			<use xlink:href="#SVGID_13_"  style="overflow:visible;"/>
		</clipPath>
		<path id="XMLID_36_" class="st7" d="M13.6,8.7l-1.5-3c-1.6,0.7-2.6,1.4-3.8,2.5l2.3,2.5C11.4,9.9,12.5,9.3,13.6,8.7"/>
	</g>
	<g>
		<defs>
			<path id="SVGID_15_" d="M1.4,25.9c2.9,6.4,12.5,7.6,21.5,2.8c9-4.9,14-14,11.1-20.4c-2.9-6.5-12.6-7.7-21.5-2.8
				C3.5,10.4-1.5,19.5,1.4,25.9"/>
		</defs>
		<clipPath id="SVGID_16_">
			<use xlink:href="#SVGID_15_"  style="overflow:visible;"/>
		</clipPath>
		<path id="XMLID_35_" class="st8" d="M22,6.3l0.6-3.8c-2,0-3.8,0.4-5.8,1.1L17.6,7C19.1,6.5,20.6,6.3,22,6.3"/>
	</g>
	<g>
		<defs>
			<path id="SVGID_17_" d="M1.4,25.9c2.9,6.4,12.5,7.6,21.5,2.8c9-4.9,14-14,11.1-20.4c-2.9-6.5-12.6-7.7-21.5-2.8
				C3.5,10.4-1.5,19.5,1.4,25.9"/>
		</defs>
		<clipPath id="SVGID_18_">
			<use xlink:href="#SVGID_17_"  style="overflow:visible;"/>
		</clipPath>
		<path id="XMLID_34_" class="st9" d="M29.5,9.3l3.7-2.5c-1-1.5-2.7-2.7-4.5-3.4l-2.2,3.4C27.6,7.5,28.7,8.2,29.5,9.3"/>
	</g>
	<g>
		<defs>
			<path id="SVGID_19_" d="M1.4,25.9c2.9,6.4,12.5,7.6,21.5,2.8c9-4.9,14-14,11.1-20.4c-2.9-6.5-12.6-7.7-21.5-2.8
				C3.5,10.4-1.5,19.5,1.4,25.9"/>
		</defs>
		<clipPath id="SVGID_20_">
			<use xlink:href="#SVGID_19_"  style="overflow:visible;"/>
		</clipPath>
		<path id="XMLID_33_" class="st10" d="M29.3,16.6l4.6,1.3c0.9-1.5,1.1-4.2,1.4-5.9l-5,0.9c0,0.3,0.1,0.4,0,0.8
			C30,14.5,29.7,15.8,29.3,16.6"/>
	</g>
	<g>
		<defs>
			<path id="SVGID_21_" d="M1.4,25.9c2.9,6.4,12.5,7.6,21.5,2.8c9-4.9,14-14,11.1-20.4c-2.9-6.5-12.6-7.7-21.5-2.8
				C3.5,10.4-1.5,19.5,1.4,25.9"/>
		</defs>
		<clipPath id="SVGID_22_">
			<use xlink:href="#SVGID_21_"  style="overflow:visible;"/>
		</clipPath>
		<path id="XMLID_32_" class="st11" d="M24.1,22.8l2.7,4c1.4-1.2,3.3-2.9,4.3-4.5l-4-2.4C26.4,20.9,25.1,21.9,24.1,22.8z"/>
	</g>
	<g>
		<defs>
			<path id="SVGID_23_" d="M1.4,25.9c2.9,6.4,12.5,7.6,21.5,2.8c9-4.9,14-14,11.1-20.4c-2.9-6.5-12.6-7.7-21.5-2.8
				C3.5,10.4-1.5,19.5,1.4,25.9"/>
		</defs>
		<clipPath id="SVGID_24_">
			<use xlink:href="#SVGID_23_"  style="overflow:visible;"/>
		</clipPath>
		<path id="XMLID_31_" class="st12" d="M16.4,26.6l-0.1,4.8c2.4-0.6,3.9-0.9,6.1-2l-2-4.3c-1.1,0.6-1.9,0.9-3.2,1.4
			C16.7,26.5,16.8,26.5,16.4,26.6z"/>
	</g>
	<g>
		<defs>
			<path id="SVGID_25_" d="M1.4,25.9c2.9,6.4,12.5,7.6,21.5,2.8c9-4.9,14-14,11.1-20.4c-2.9-6.5-12.6-7.7-21.5-2.8
				C3.5,10.4-1.5,19.5,1.4,25.9"/>
		</defs>
		<clipPath id="SVGID_26_">
			<use xlink:href="#SVGID_25_"  style="overflow:visible;"/>
		</clipPath>
		<path id="XMLID_30_" class="st13" d="M8,26.3l-3.2,3.5c1.7,0.9,3.8,1.6,6,1.7l1.3-4.4C10.7,27,9.3,26.9,8,26.3z"/>
	</g>
	<g>
		<defs>
			<path id="SVGID_27_" d="M1.4,25.9c2.9,6.4,12.5,7.6,21.5,2.8c9-4.9,14-14,11.1-20.4c-2.9-6.5-12.6-7.7-21.5-2.8
				C3.5,10.4-1.5,19.5,1.4,25.9"/>
		</defs>
		<clipPath id="SVGID_28_">
			<use xlink:href="#SVGID_27_"  style="overflow:visible;"/>
		</clipPath>
		<path id="XMLID_29_" class="st14" d="M4.6,20.6l-4-0.1c-0.3,1.9,0,3.9,0.8,5.5l4-1.9C4.9,23.1,4.5,21.9,4.6,20.6z"/>
	</g>
</g>
<path id="XMLID_28_" class="st15" d="M5,23.5c2,4.4,9.2,5,16,1.3S31.8,14.5,29.8,10c-2-4.4-9.2-5-16-1.3C6.9,12.5,3,19.1,5,23.5"/>
<path id="XMLID_84_" class="st0" d="M4.9,23.6c-0.4-0.8-0.5-1.7-0.5-2.6c0-4.2,3.7-9.3,9.4-12.4c3.1-1.7,6.2-2.5,8.9-2.5
	c3.4,0,6.2,1.3,7.3,3.8c0.4,0.8,0.5,1.7,0.5,2.6c0,4.2-3.7,9.3-9.4,12.4c-3.1,1.7-6.2,2.5-8.9,2.5C8.8,27.4,6,26.1,4.9,23.6
	 M12.2,27.1c2.7,0,5.7-0.8,8.8-2.5c5.6-3,9.2-8.1,9.2-12.1c0-0.9-0.2-1.7-0.5-2.5c-1.1-2.4-3.7-3.6-7.1-3.6c-2.7,0-5.7,0.8-8.8,2.5
	c-5.6,3-9.2,8-9.2,12.1c0,0.9,0.2,1.7,0.5,2.5H5l0.1-0.1C6.2,25.8,8.9,27.1,12.2,27.1"/>
<path id="XMLID_79_" class="st5" d="M8.9,8.9c-1.4,1.4-2.5,2.8-3.3,4l0.8,0.5c1-1,2.3-2.1,3.8-3.1L8.9,8.9 M32.9,7l-2.6,1.8
	c0.7,1,1.2,2.2,1.5,3.8l0.9-0.2C33.6,10.2,33.6,8.4,32.9,7 M16.9,3.7c-1.7,0.6-3.2,1.5-4.6,2.4l1.1,2.2c1.3-0.7,2.6-1.2,4.1-1.6h0.1
	L16.9,3.7 M23.1,2.6c-0.2,0-0.3,0-0.5,0L22,6c0.5,0,1-0.1,1.4-0.1c1.1,0,2.3,0.1,3.3,0.4l1.9-2.8C26.9,2.9,25,2.6,23.1,2.6"/>
<polyline id="XMLID_16_" class="st16" points="26.9,8.7 19.6,11.7 14.7,9.1 13.3,15 6.5,19.4 12.9,20 13.6,25.3 19,19.8 26.2,18.7
	23.1,14.7 26.9,8.7 "/>
<path id="XMLID_67_" class="st5" d="M25.9,18.3c0,0.1,0,0.3-0.1,0.4l0.4-0.1L25.9,18.3 M26.9,8.7l-7.3,3l-4.4-2.3
	c-0.2,0.1-0.4,0.2-0.6,0.3L13.3,15l-6.8,4.4l4.5,0.4c1.7-0.9,3.5-1.9,4.9-2.4c3.3-1.2,5.6-2.2,7.3-2.6l-0.1-0.1L26.9,8.7"/>
</svg>
