<?xml version="1.0" encoding="utf-8"?>
<!-- Generator: Adobe Illustrator 21.1.0, SVG Export Plug-In . SVG Version: 6.00 Build 0)  -->
<svg version="1.1" id="Layer_1" xmlns="http://www.w3.org/2000/svg" xmlns:xlink="http://www.w3.org/1999/xlink" x="0px" y="0px"
	 width="128px" height="128px" viewBox="0 0 128 128" style="enable-background:new 0 0 128 128;" xml:space="preserve">
<style type="text/css">
	.st0{fill:#B3B3B3;}
	.st1{fill:#4B4B4B;}
	.st2{fill:#4E4D4D;}
	.st3{fill:#464646;}
	.st4{fill:#494949;}
	.st5{fill:#E6E1DF;}
	.st6{fill:#A3A2A2;}
	.st7{fill:#3B3B3B;}
	.st8{fill:#D7CDC8;}
	.st9{fill:#C4C4C4;}
	.st10{fill:#E9E6E5;}
	.st11{fill:#E8E4E3;}
	.st12{fill:#E7E4E3;}
	.st13{fill:#E7E3E2;}
</style>
<g>
	<path class="st0" d="M26.3,85.3c1,9.2,2.1,18.4,3.1,27.6c0.2,1.5,0.4,3,0.5,4.4c0.2,2.4-1.2,3.9-3.4,4.2c-2.4,0.3-4.2-0.9-4.5-3.5
		c-1-7.4-2-14.8-2.9-22.2C15.9,71,12.8,46.2,9.6,21.4c-0.4-3-0.8-6,2.5-7.1c4.2-1.4,4.8,2.2,5.8,5c0,4.4-0.2,8.9,1.3,13.2
		c-0.6,3.6,0.9,7.1,0.9,10.7c0,1.6,1,1.9,2.3,1.5c1.3,3.5,0.4,7.5,2.8,10.7c-1.1,1.2-3.6,1.3-3.2,3.8c0.7,4,0.3,8.1,1.9,12
		C24.2,75.9,23.1,80.9,26.3,85.3z M24,113.5c0.7-0.1,1.4-0.2,2.2-0.3c-4.1-31.9-8.3-63.8-12.4-95.7c-0.7,0.1-1.4,0.2-2.1,0.3
		C15.8,49.7,19.9,81.6,24,113.5z"/>
	<path class="st1" d="M94.4,17.8c3.2-2.8,6.4-5.6,9.6-8.5c2.2-2,3.2-0.8,3.6,1.4c0.6,3.1,1,6.2,1.5,9.3c-3.2,2.1-6.3,4.3-9.5,6.4
		c-1.2,0.8-2.9,1.3-2.2,3.3c0.9,2.8,0.6,6,2.7,8.4c0,0.7-0.1,1.4-0.1,2.1c-1.1-1.2-2.4-0.6-3.6-0.3c-3.6,0.9-8.8,0.5-10.5,2.8
		c-2,2.7,0.9,7.4,1.3,11.3c-5.4-0.9-10.9-1.8-16.3-2.7c-0.3-0.2-0.7-0.3-1-0.5c-0.3-3.8-0.6-7.5-0.9-11.3c1.4,0.4,2.9,1,4.3,1.2
		c13.9,1.6,11.9,2.6,9.1-9.8c2.3-0.4,4.6-0.7,6.9-1.2c7.9-1.7,8-2,5.8-9.8C94.7,19.3,94.5,18.6,94.4,17.8z"/>
	<path class="st2" d="M65.2,19.2c4.9,2.1,10.2,1.7,15.4,2.1c0.2,0.6,0.4,1.2,0.6,1.7c0.4,2.7,0.8,5.3,1.2,8
		c-2.3-0.1-4.6-0.2-6.9-0.2c-2.8,0-6.6-2.6-8.1-0.6c-1.5,2.2,0.2,6,1.2,9c-5.3-0.8-10.6-1.6-16-2.4c-0.3-0.1-0.5-0.3-0.6-0.7
		c-0.6-3.7-1.1-7.5-1.7-11.2c3.1,0.5,6.2,0.8,9.2,1.5c7.1,1.8,7.1,1.9,5.2-5.4C64.9,20.4,65,19.8,65.2,19.2z"/>
	<path class="st3" d="M31,13c6.4-2.2,12.7-2.4,18.8,1.1c0.1,1,0.1,1.9,0.2,2.9c0.2,2.7,0.3,5.4,0.5,8c-5.9-1.3-11.7-0.5-17.5,0.4
		C32.5,21.2,32.4,17,31,13z"/>
	<path class="st4" d="M99.9,40.2c0-0.7,0.1-1.4,0.1-2.1c4-2.1,8.1-4.2,12.1-6.3c0.9,4.4,2.7,8.6,2.8,13.2c-1,0.6-2.1,1.3-3.1,1.9
		c-3.3,1.5-6.6,3.1-9.9,4.6C101.3,47.7,100.6,44,99.9,40.2z"/>
	<path class="st5" d="M31,13c1.3,4,1.5,8.2,1.9,12.4c0,0,0.1-0.1,0.1-0.1c-3.7,1.5-7.4,2.8-10.7,5.2c-3.1-3.5-2.1-7.7-2.3-11.7
		C22.8,15.1,26.8,13.8,31,13z"/>
	<path class="st5" d="M112.1,31.8c-4,2.1-8.1,4.2-12.1,6.3c-2-2.4-1.8-5.6-2.7-8.4c-0.6-2,1-2.5,2.2-3.3c3.2-2.1,6.3-4.3,9.5-6.4
		C110.7,23.8,111.8,27.7,112.1,31.8z"/>
	<path class="st3" d="M118.1,56.9c0.7,3,1.3,6.1,2,9.1c-1.5,0-2.3,1.2-3.4,1.8c-3.4,1.9-6.2,5.1-10.5,5.2c-0.7-3-1.4-6-2.1-9.1
		c0.1-0.5,0.1-0.9,0.2-1.4c4.3-1,8.3-2.8,11.9-5.5C116.7,57,117.4,56.9,118.1,56.9z"/>
	<path class="st6" d="M26.3,85.3c-3.1-4.4-2.1-9.4-2.3-14.2c0.5-0.1,1-0.2,1.4-0.3c0.4,1.9,1,3.8,1.2,5.8c0.3,3.6,1.5,4.2,4.6,2.1
		c2.6-1.7,5.3-3.5,8.5-3.7c0.1,0.7,0.1,1.5,0.2,2.2C35.9,80.6,30.8,82.4,26.3,85.3z"/>
	<path class="st7" d="M40,77.1c-0.1-0.7-0.1-1.5-0.2-2.2c0.2-0.6,0.3-1.2,0.5-1.9c5.9-0.8,11.7-2.8,17.8-2c0.2,0.1,0.5,0.2,0.7,0.4
		c0,0.8,0,1.6,0,2.3C52.3,73.5,46.2,75.6,40,77.1z"/>
	<path class="st7" d="M91,80c-5.4,0.3-10.7-0.7-15.9-2.2C75.1,76.9,75,76,74.9,75c5.1,0,10.2,2.3,15.3-0.1c0.3,0.7,0.6,1.4,0.8,2
		C91.1,78,91.1,79,91,80z"/>
	<path class="st7" d="M106.1,73c4.3-0.2,7.1-3.3,10.5-5.2c1.1-0.6,1.9-1.8,3.4-1.8c1.1,1.6,1.1,3.1-0.7,4.2
		c-4.2,2.7-8.2,5.7-13.3,6.5c-0.1-0.6-0.3-1.3-0.4-1.9C105.8,74.2,105.9,73.6,106.1,73z"/>
	<path class="st6" d="M74.9,75c0.1,0.9,0.1,1.9,0.2,2.8c-5.5-1.4-10.9-2.8-16.4-4.2c0-0.8,0-1.6,0-2.3c5.4-0.5,10.2,2.6,15.5,2.8
		C74.5,74.5,74.7,74.7,74.9,75z"/>
	<path class="st6" d="M105.7,74.8c0.1,0.6,0.3,1.3,0.4,1.9c-4.6,3-9.7,3.6-15,3.3c0-1,0.1-2.1,0.1-3.1
		C96.1,77.4,100.8,75.3,105.7,74.8z"/>
	<path class="st8" d="M49.9,17c-0.1-1-0.1-1.9-0.2-2.9c5.6,0.4,10.1,4,15.4,5c-0.2,0.6-0.3,1.3-0.5,1.9C59.6,20.4,55.1,17.4,49.9,17
		z"/>
	<path class="st8" d="M81.2,23c-0.2-0.6-0.4-1.2-0.6-1.7c4.8-0.2,9.1-2.6,13.8-3.5c0.2,0.7,0.3,1.5,0.5,2.2
		C90.3,21,86.1,23.6,81.2,23z"/>
	<path class="st8" d="M118.1,56.9c-0.7,0.1-1.3,0.1-2,0.2c-2.5-2.9-0.3-7.9-4.3-10.2c1-0.6,2.1-1.3,3.1-1.9
		C117.1,48.6,117,52.9,118.1,56.9z"/>
	<path class="st6" d="M20,18.8c0.2,4-0.7,8.3,2.3,11.7c-0.6,1.3-2,1.3-3.1,1.9c-1.5-4.3-1.3-8.7-1.3-13.2
		C18.6,19.1,19.3,18.9,20,18.8z"/>
	<path class="st7" d="M25.4,70.7c-0.5,0.1-1,0.2-1.4,0.3c-1.6-3.8-1.3-8-1.9-12c-0.4-2.5,2-2.6,3.2-3.8c3.4-1.5,6.5-3.9,10.4-4.5
		c0.3,0.2,0.6,0.2,0.9,0.2c0.8,4,1.6,8.1,2.4,12.1c0,0.3-0.1,0.7,0,1C33.6,64.6,29.1,66.8,25.4,70.7z"/>
	<path class="st9" d="M24,113.5c-4.1-31.9-8.2-63.8-12.4-95.7c0.7-0.1,1.4-0.2,2.1-0.3c4.1,31.9,8.3,63.8,12.4,95.7
		C25.5,113.3,24.8,113.4,24,113.5z"/>
	<path class="st3" d="M19.3,32.4c1.1-0.6,2.4-0.7,3.1-1.9c3.2-2.4,7-3.7,10.7-5.2c0.4,3.8,0.8,7.6,1.1,11.4c0,0.5-0.1,0.9-0.1,1.4
		c-4.1,1.6-8.8,2.3-11.5,6.5c-1.3,0.4-2.3,0.1-2.3-1.5C20.1,39.5,18.7,36,19.3,32.4z"/>
	<path class="st10" d="M22.5,44.6c2.7-4.2,7.4-4.8,11.5-6.5c0.9,4.2,2.3,8.3,1.6,12.7c-3.9,0.5-6.9,2.9-10.4,4.5
		C22.8,52.1,23.8,48,22.5,44.6z"/>
	<path class="st11" d="M74.2,74.2c-5.3-0.2-10.1-3.3-15.5-2.8c-0.2-0.1-0.4-0.3-0.7-0.4c-0.4-3.3-0.8-6.7-1.2-10
		c1.3,0.1,2.7,0.1,4,0.1c3.8,0,8.4,3.6,10.7,1.2c2.2-2.3-1.2-7.1-0.9-10.9c5.4,0.9,10.9,1.8,16.3,2.7C87,54,87,54,87,54
		c0.8,4,1.7,8.1,2.5,12.1c-2-0.2-4-0.3-6-0.5c-3.3-0.4-7.7-2.5-9.6-1.1C71.2,66.5,74.7,70.8,74.2,74.2z"/>
	<path class="st4" d="M70.7,51.3c-0.3,3.8,3.1,8.6,0.9,10.9c-2.3,2.5-7-1.2-10.7-1.2c-1.3,0-2.7-0.1-4-0.1c-0.4,0-0.8-0.1-1.1-0.1
		c0.8-4.5-1.3-8.6-1.7-12.9L54,48c5.3,0.9,10.5,1.9,15.8,2.8C70,51,70.4,51.2,70.7,51.3z"/>
	<path class="st12" d="M99.9,40.2c0.7,3.8,1.4,7.5,2,11.3c0,0,0.1,0,0.1,0C97,52.2,92.1,54,87,54C87,54,87,54,87,54
		c-0.4-3.9-3.3-8.5-1.3-11.3c1.7-2.3,6.9-1.9,10.5-2.8C97.5,39.6,98.8,39,99.9,40.2z"/>
	<path class="st12" d="M69.7,50.9C64.5,49.9,59.2,49,54,48c-0.4-3.7-0.9-7.4-1.3-11.2c5.3,0.8,10.6,1.6,16,2.4c0,0,0.3,0.4,0.3,0.4
		C69.1,43.3,69.4,47.1,69.7,50.9z"/>
	<path class="st11" d="M68.9,39.6c0,0-0.3-0.4-0.3-0.4c-1-3-2.7-6.8-1.2-9c1.5-2.1,5.3,0.6,8.1,0.6c2.3,0,4.6,0.1,6.9,0.2
		c0,0-0.1-0.1-0.1-0.1c2.8,12.4,4.8,11.4-9.1,9.8C71.7,40.6,70.3,40,68.9,39.6z"/>
	<path class="st10" d="M82.3,31c0,0,0.1,0.1,0.1,0.1c-0.4-2.7-0.8-5.3-1.2-8c4.9,0.6,9.1-2.1,13.7-3c2.3,7.8,2.1,8.1-5.8,9.8
		C86.9,30.3,84.6,30.6,82.3,31z"/>
	<path class="st4" d="M52.6,36.9c0.4,3.7,0.9,7.4,1.3,11.2c0,0,0.1-0.1,0.1-0.1c-1.7,0.9-3.5,0.1-5.3,0.2c-4.2,0.2-8.6,0-12.2,2.8
		c-0.3,0-0.7-0.1-0.9-0.2c0.7-4.4-0.7-8.5-1.6-12.7c0-0.5,0.1-0.9,0.1-1.4c6-0.2,11.9-0.4,17.9-0.5C52.1,36.5,52.3,36.7,52.6,36.9z"
		/>
	<path class="st10" d="M52,36.2c-6,0.2-11.9,0.4-17.9,0.5c-0.4-3.8-0.8-7.6-1.1-11.4c0,0-0.1,0.1-0.1,0.1c5.8-0.8,11.6-1.7,17.5-0.4
		c0,0-0.1-0.1-0.1-0.1C50.9,28.7,51.5,32.4,52,36.2z"/>
	<path class="st13" d="M50.3,25c0,0,0.1,0.1,0.1,0.1c-0.2-2.7-0.3-5.4-0.5-8c5.2,0.4,9.6,3.4,14.8,4.1c1.9,7.3,1.9,7.2-5.2,5.4
		C56.5,25.7,53.4,25.5,50.3,25z"/>
	<path class="st10" d="M102,51.5c0,0-0.1,0-0.1,0c3.3-1.5,6.6-3.1,9.9-4.6c4,2.3,1.8,7.2,4.3,10.2c-3.6,2.7-7.6,4.5-11.9,5.5
		C103.5,58.9,102.8,55.2,102,51.5z"/>
	<path class="st1" d="M102,51.5c0.7,3.7,1.4,7.4,2.1,11.1c-0.1,0.5-0.1,0.9-0.2,1.4c-4.9,0.7-9.8,1.3-14.7,2l0.1,0.1
		C88.6,62,87.8,58,87,54C92.1,54,97,52.2,102,51.5z"/>
	<path class="st10" d="M89.4,66c4.9-0.7,9.8-1.3,14.7-2c0.7,3,1.4,6,2.1,9.1c-0.1,0.6-0.3,1.2-0.4,1.8c-4.9,0.5-9.5,2.5-14.5,2.1
		c-0.3-0.7-0.6-1.4-0.8-2C90,71.9,89.7,68.9,89.4,66z"/>
	<path class="st10" d="M25.4,70.7c3.7-3.9,8.2-6.2,13.5-6.6c0.4,3,0.9,5.9,1.3,8.9c-0.2,0.6-0.3,1.2-0.5,1.9c-3.3,0.3-6,2-8.5,3.7
		c-3.1,2.1-4.3,1.5-4.6-2.1C26.5,74.5,25.9,72.6,25.4,70.7z"/>
	<path class="st3" d="M40.2,73c-0.4-3-0.9-5.9-1.3-8.9c0-0.3,0-0.7,0-1c5.4-2.3,11-2.8,16.8-2.2c0.4,0,0.8,0.1,1.1,0.1
		c0.4,3.3,0.8,6.7,1.2,10C52,70.2,46.2,72.2,40.2,73z"/>
	<path class="st3" d="M89.4,66c0.3,3,0.6,6,0.9,8.9C85.2,77.3,80,75,74.9,75c-0.2-0.3-0.5-0.6-0.7-0.8c0.5-3.4-3-7.7-0.3-9.7
		c1.9-1.4,6.3,0.6,9.6,1.1c2,0.3,4,0.4,6,0.5C89.5,66,89.4,66,89.4,66z"/>
	<path class="st13" d="M55.7,60.9C50,60.4,44.4,60.8,39,63.1c-0.8-4-1.6-8.1-2.4-12.1c3.6-2.8,7.9-2.6,12.2-2.8
		c1.8-0.1,3.6,0.6,5.3-0.2C54.5,52.3,56.5,56.4,55.7,60.9z"/>
</g>
</svg>
